<?xml version="1.0" encoding="UTF-8"?>
<svg xmlns="http://www.w3.org/2000/svg" xmlns:xlink="http://www.w3.org/1999/xlink" width="20pt" height="20pt" viewBox="0 0 20 20" version="1.1">
<g id="surface1">
<path style=" stroke:none;fill-rule:nonzero;fill:rgb(0%,0%,0%);fill-opacity:1;" d="M 17.269531 2.46875 L 2.46875 2.46875 C 1.105469 2.46875 0 3.570312 0 4.933594 L 0 14.800781 C 0 16.164062 1.105469 17.269531 2.46875 17.269531 L 17.269531 17.269531 C 18.632812 17.269531 19.738281 16.164062 19.738281 14.800781 L 19.738281 4.933594 C 19.738281 3.570312 18.632812 2.46875 17.269531 2.46875 Z M 13.210938 9.050781 L 18.429688 4.574219 C 18.46875 4.691406 18.503906 4.804688 18.503906 4.933594 L 18.503906 14.800781 C 18.503906 14.886719 18.46875 14.964844 18.453125 15.042969 Z M 17.269531 3.699219 C 17.351562 3.699219 17.425781 3.730469 17.5 3.746094 L 9.867188 10.289062 L 2.234375 3.746094 C 2.3125 3.730469 2.386719 3.699219 2.46875 3.699219 Z M 1.28125 15.042969 C 1.265625 14.960938 1.234375 14.886719 1.234375 14.800781 L 1.234375 4.933594 C 1.234375 4.804688 1.269531 4.691406 1.304688 4.574219 L 6.527344 9.046875 Z M 2.46875 16.035156 C 2.339844 16.035156 2.226562 16 2.113281 15.964844 L 7.464844 9.851562 L 9.46875 11.570312 C 9.582031 11.667969 9.722656 11.71875 9.867188 11.71875 C 10.011719 11.71875 10.152344 11.667969 10.269531 11.570312 L 12.273438 9.851562 L 17.621094 15.964844 C 17.507812 16 17.394531 16.035156 17.269531 16.035156 Z M 2.46875 16.035156 "/>
</g>
</svg>
