<?xml version="1.0" encoding="UTF-8"?>
<svg xmlns="http://www.w3.org/2000/svg" xmlns:xlink="http://www.w3.org/1999/xlink" width="30pt" height="30pt" viewBox="0 0 30 30" version="1.1">
<g id="surface1">
<path style=" stroke:none;fill-rule:evenodd;fill:rgb(9.411765%,8.627451%,8.627451%);fill-opacity:1;" d="M 15 0.355469 C 9.492188 0.355469 5.027344 4.820312 5.027344 10.324219 C 5.027344 14.730469 7.886719 18.46875 11.847656 19.789062 C 12.347656 19.878906 12.527344 19.570312 12.527344 19.308594 C 12.527344 19.070312 12.519531 18.285156 12.515625 17.453125 C 9.742188 18.054688 9.15625 16.273438 9.15625 16.273438 C 8.703125 15.121094 8.046875 14.816406 8.046875 14.816406 C 7.144531 14.195312 8.117188 14.210938 8.117188 14.210938 C 9.117188 14.28125 9.644531 15.238281 9.644531 15.238281 C 10.535156 16.761719 11.976562 16.320312 12.546875 16.066406 C 12.636719 15.421875 12.894531 14.980469 13.179688 14.734375 C 10.964844 14.480469 8.636719 13.625 8.636719 9.804688 C 8.636719 8.714844 9.027344 7.828125 9.664062 7.128906 C 9.5625 6.875 9.21875 5.863281 9.761719 4.488281 C 9.761719 4.488281 10.597656 4.222656 12.503906 5.511719 C 13.300781 5.289062 14.152344 5.179688 15 5.175781 C 15.847656 5.179688 16.699219 5.289062 17.496094 5.511719 C 19.402344 4.222656 20.238281 4.488281 20.238281 4.488281 C 20.78125 5.863281 20.4375 6.875 20.335938 7.128906 C 20.972656 7.828125 21.359375 8.714844 21.359375 9.804688 C 21.359375 13.632812 19.027344 14.476562 16.808594 14.722656 C 17.164062 15.035156 17.484375 15.640625 17.484375 16.570312 C 17.484375 17.90625 17.472656 18.980469 17.472656 19.308594 C 17.472656 19.570312 17.652344 19.882812 18.15625 19.785156 C 22.117188 18.464844 24.972656 14.730469 24.972656 10.324219 C 24.972656 4.820312 20.507812 0.355469 15 0.355469 Z M 15 0.355469 "/>
<path style=" stroke:none;fill-rule:nonzero;fill:rgb(9.411765%,8.627451%,8.627451%);fill-opacity:1;" d="M 8.804688 14.671875 C 8.78125 14.71875 8.707031 14.734375 8.632812 14.703125 C 8.5625 14.667969 8.519531 14.601562 8.542969 14.550781 C 8.566406 14.5 8.644531 14.488281 8.714844 14.519531 C 8.789062 14.554688 8.832031 14.621094 8.804688 14.671875 Z M 9.210938 15.121094 C 9.160156 15.164062 9.070312 15.144531 9.003906 15.074219 C 8.941406 15.007812 8.929688 14.914062 8.976562 14.867188 C 9.023438 14.824219 9.117188 14.84375 9.179688 14.914062 C 9.246094 14.984375 9.257812 15.078125 9.210938 15.121094 Z M 9.601562 15.695312 C 9.542969 15.738281 9.441406 15.699219 9.378906 15.609375 C 9.316406 15.519531 9.316406 15.414062 9.382812 15.371094 C 9.441406 15.328125 9.542969 15.367188 9.601562 15.457031 C 9.664062 15.546875 9.664062 15.652344 9.601562 15.695312 Z M 10.140625 16.25 C 10.085938 16.3125 9.96875 16.292969 9.886719 16.210938 C 9.796875 16.132812 9.773438 16.019531 9.828125 15.957031 C 9.882812 15.898438 10 15.914062 10.085938 15.996094 C 10.171875 16.074219 10.199219 16.191406 10.140625 16.25 Z M 10.882812 16.574219 C 10.859375 16.652344 10.746094 16.6875 10.636719 16.652344 C 10.523438 16.617188 10.449219 16.527344 10.472656 16.449219 C 10.496094 16.371094 10.605469 16.332031 10.722656 16.367188 C 10.832031 16.402344 10.90625 16.492188 10.882812 16.574219 Z M 11.699219 16.632812 C 11.703125 16.714844 11.605469 16.78125 11.488281 16.785156 C 11.371094 16.789062 11.273438 16.71875 11.273438 16.640625 C 11.273438 16.554688 11.367188 16.488281 11.484375 16.488281 C 11.601562 16.484375 11.699219 16.550781 11.699219 16.632812 Z M 12.460938 16.503906 C 12.472656 16.582031 12.390625 16.664062 12.273438 16.6875 C 12.15625 16.710938 12.050781 16.660156 12.035156 16.578125 C 12.023438 16.496094 12.105469 16.414062 12.222656 16.394531 C 12.339844 16.375 12.445312 16.421875 12.460938 16.503906 Z M 12.460938 16.503906 "/>
<path style=" stroke:none;fill-rule:nonzero;fill:rgb(6.27451%,5.490196%,5.882353%);fill-opacity:1;" d="M 5.824219 25.382812 L 3.316406 25.382812 C 3.253906 25.382812 3.199219 25.4375 3.199219 25.5 L 3.199219 26.726562 C 3.199219 26.792969 3.253906 26.84375 3.316406 26.84375 L 4.296875 26.84375 L 4.296875 28.367188 C 4.296875 28.367188 4.074219 28.441406 3.46875 28.441406 C 2.753906 28.441406 1.75 28.179688 1.75 25.980469 C 1.75 23.777344 2.792969 23.488281 3.773438 23.488281 C 4.621094 23.488281 4.984375 23.636719 5.214844 23.710938 C 5.289062 23.730469 5.355469 23.660156 5.355469 23.59375 L 5.636719 22.410156 C 5.636719 22.375 5.621094 22.339844 5.589844 22.316406 C 5.496094 22.25 4.921875 21.929688 3.46875 21.929688 C 1.792969 21.929688 0.078125 22.640625 0.078125 26.066406 C 0.078125 29.488281 2.042969 30 3.699219 30 C 5.074219 30 5.90625 29.414062 5.90625 29.414062 C 5.9375 29.394531 5.941406 29.347656 5.941406 29.324219 L 5.941406 25.5 C 5.941406 25.433594 5.890625 25.382812 5.824219 25.382812 Z M 18.632812 22.222656 L 17.222656 22.222656 C 17.191406 22.222656 17.160156 22.234375 17.140625 22.253906 C 17.117188 22.277344 17.105469 22.308594 17.105469 22.339844 L 17.105469 25.066406 L 14.90625 25.066406 L 14.90625 22.339844 C 14.90625 22.273438 14.851562 22.222656 14.789062 22.222656 L 13.375 22.222656 C 13.34375 22.222656 13.316406 22.234375 13.292969 22.253906 C 13.269531 22.277344 13.257812 22.308594 13.257812 22.339844 L 13.257812 29.730469 C 13.257812 29.792969 13.3125 29.847656 13.375 29.847656 L 14.789062 29.847656 C 14.820312 29.847656 14.847656 29.832031 14.871094 29.8125 C 14.890625 29.789062 14.90625 29.757812 14.90625 29.730469 L 14.90625 26.566406 L 17.105469 26.566406 L 17.101562 29.730469 C 17.101562 29.792969 17.15625 29.847656 17.21875 29.847656 L 18.632812 29.847656 C 18.664062 29.847656 18.695312 29.832031 18.71875 29.8125 C 18.738281 29.789062 18.75 29.757812 18.75 29.730469 L 18.75 22.339844 C 18.75 22.273438 18.699219 22.222656 18.632812 22.222656 Z M 7.578125 22.390625 C 7.078125 22.390625 6.667969 22.800781 6.667969 23.308594 C 6.667969 23.816406 7.078125 24.226562 7.578125 24.226562 C 8.082031 24.226562 8.488281 23.816406 8.488281 23.308594 C 8.488281 22.800781 8.082031 22.390625 7.578125 22.390625 Z M 8.273438 24.640625 L 6.863281 24.640625 C 6.800781 24.640625 6.742188 24.707031 6.742188 24.773438 L 6.742188 29.660156 C 6.742188 29.804688 6.832031 29.847656 6.949219 29.847656 L 8.214844 29.847656 C 8.355469 29.847656 8.390625 29.777344 8.390625 29.65625 L 8.390625 24.757812 C 8.390625 24.695312 8.335938 24.640625 8.273438 24.640625 Z M 24.117188 24.652344 L 22.714844 24.652344 C 22.652344 24.652344 22.597656 24.707031 22.601562 24.769531 L 22.601562 28.394531 C 22.601562 28.394531 22.242188 28.652344 21.738281 28.652344 C 21.234375 28.652344 21.097656 28.425781 21.097656 27.929688 L 21.097656 24.769531 C 21.101562 24.738281 21.085938 24.710938 21.066406 24.6875 C 21.042969 24.664062 21.015625 24.652344 20.984375 24.652344 L 19.5625 24.652344 C 19.496094 24.652344 19.445312 24.707031 19.445312 24.769531 L 19.445312 28.167969 C 19.445312 29.636719 20.261719 30 21.390625 30 C 22.3125 30 23.058594 29.488281 23.058594 29.488281 C 23.058594 29.488281 23.09375 29.757812 23.109375 29.789062 C 23.128906 29.820312 23.167969 29.851562 23.214844 29.851562 L 24.117188 29.847656 C 24.183594 29.847656 24.234375 29.796875 24.234375 29.730469 L 24.234375 24.769531 C 24.234375 24.703125 24.183594 24.652344 24.117188 24.652344 Z M 27.949219 24.484375 C 27.152344 24.484375 26.609375 24.839844 26.609375 24.839844 L 26.609375 22.339844 C 26.609375 22.273438 26.558594 22.222656 26.492188 22.222656 L 25.078125 22.222656 C 25.046875 22.222656 25.015625 22.234375 24.996094 22.253906 C 24.972656 22.277344 24.960938 22.308594 24.960938 22.339844 L 24.960938 29.730469 C 24.960938 29.761719 24.972656 29.789062 24.996094 29.8125 C 25.015625 29.835938 25.046875 29.847656 25.078125 29.847656 L 26.0625 29.847656 C 26.105469 29.847656 26.136719 29.824219 26.164062 29.785156 C 26.1875 29.742188 26.222656 29.441406 26.222656 29.441406 C 26.222656 29.441406 26.800781 29.992188 27.898438 29.992188 C 29.183594 29.992188 29.921875 29.339844 29.921875 27.0625 C 29.921875 24.785156 28.742188 24.484375 27.949219 24.484375 Z M 27.394531 28.648438 C 26.910156 28.632812 26.578125 28.414062 26.578125 28.414062 L 26.578125 26.074219 C 26.578125 26.074219 26.90625 25.875 27.304688 25.839844 C 27.808594 25.792969 28.292969 25.945312 28.292969 27.148438 C 28.292969 28.417969 28.074219 28.667969 27.394531 28.648438 Z M 12.46875 28.621094 C 12.40625 28.621094 12.246094 28.648438 12.085938 28.648438 C 11.566406 28.648438 11.390625 28.40625 11.390625 28.09375 L 11.390625 26.015625 L 12.449219 26.015625 C 12.480469 26.015625 12.507812 26 12.53125 25.980469 C 12.554688 25.957031 12.566406 25.925781 12.566406 25.894531 L 12.566406 24.757812 C 12.566406 24.726562 12.554688 24.695312 12.53125 24.675781 C 12.507812 24.652344 12.480469 24.640625 12.449219 24.640625 L 11.390625 24.640625 L 11.386719 23.242188 C 11.386719 23.1875 11.359375 23.160156 11.296875 23.160156 L 9.855469 23.160156 C 9.800781 23.160156 9.769531 23.1875 9.769531 23.238281 L 9.769531 24.6875 C 9.769531 24.6875 9.046875 24.859375 8.996094 24.875 C 8.945312 24.890625 8.914062 24.933594 8.914062 24.988281 L 8.914062 25.894531 C 8.910156 25.960938 8.964844 26.011719 9.027344 26.011719 L 9.769531 26.011719 L 9.769531 28.199219 C 9.769531 29.824219 10.90625 29.984375 11.675781 29.984375 C 12.027344 29.984375 12.449219 29.871094 12.515625 29.84375 C 12.558594 29.828125 12.582031 29.785156 12.582031 29.738281 L 12.585938 28.738281 C 12.582031 28.675781 12.53125 28.621094 12.46875 28.621094 Z M 12.46875 28.621094 "/>
</g>
</svg>
